<?xml version="1.0" standalone="no"?>
<!DOCTYPE svg PUBLIC "-//W3C//DTD SVG 20010904//EN"
 "http://www.w3.org/TR/2001/REC-SVG-20010904/DTD/svg10.dtd">
<svg version="1.0" xmlns="http://www.w3.org/2000/svg"
 width="600.000000pt" height="600.000000pt" viewBox="0 0 600.000000 600.000000"
 preserveAspectRatio="xMidYMid meet">
<metadata>
Created by potrace 1.11, written by Peter Selinger 2001-2013
</metadata>
<g transform="translate(0.000000,600.000000) scale(0.100000,-0.100000)"
fill="#000000" stroke="none">
<path d="M455 5624 c-46 -24 -74 -54 -86 -93 -7 -24 -9 -853 -7 -2552 l3
-2516 29 -37 c54 -72 -169 -66 2619 -64 l2524 3 35 27 c74 57 68 -191 68 2613
l0 2518 -21 34 c-12 18 -37 45 -57 58 l-37 25 -2520 0 c-2264 0 -2523 -2
-2550 -16z m5038 -80 c59 -12 55 161 56 -2534 0 -1361 -2 -2487 -5 -2503 -12
-59 160 -55 -2544 -55 -1653 0 -2492 4 -2506 10 -13 6 -27 22 -33 37 -14 36
-13 4976 1 5007 6 12 20 26 32 32 22 10 4946 16 4999 6z"/>
<path d="M1071 5100 c-4 -3 -7 -59 -6 -124 l0 -119 618 0 c443 0 617 -3 618
-11 0 -6 1 -900 2 -1986 l2 -1975 120 0 120 0 0 2104 c0 1734 -2 2104 -13
2109 -17 6 -1452 9 -1461 2z"/>
<path d="M2923 5071 c-9 -7 -12 -230 -3 -232 3 -1 370 -3 815 -5 446 -2 831
-3 856 -4 l46 0 -109 -107 -108 -107 82 -83 c45 -46 87 -83 91 -83 14 0 629
618 620 623 -12 7 -2280 5 -2290 -2z"/>
<path d="M2906 2783 c1 -1011 2 -1853 3 -1870 l1 -33 1157 0 1158 0 -317 317
-318 318 -87 -87 -86 -87 79 -79 c43 -44 92 -93 107 -109 l28 -30 -741 0 -740
0 0 56 c0 31 -1 818 -1 1749 l0 1692 -122 0 -122 0 1 -1837z"/>
</g>
</svg>
